<svg width="263" height="103" viewBox="0 0 263 103" fill="none" xmlns="http://www.w3.org/2000/svg">
<path d="M33.992 51.592C36.296 51.4213 39.1547 51.1653 42.568 50.824C45.9813 50.3973 49.48 49.9707 53.064 49.544C56.7333 49.1173 60.2747 48.776 63.688 48.52C67.1013 48.1787 69.96 48.008 72.264 48.008C74.312 48.008 75.9333 48.8613 77.128 50.568C78.408 52.2747 79.048 54.0667 79.048 55.944C79.048 57.3093 78.152 58.5893 76.36 59.784C74.568 60.8933 72.3067 61.9173 69.576 62.856C66.8453 63.7947 63.7733 64.648 60.36 65.416C57.032 66.0987 53.7893 66.7387 50.632 67.336C47.56 67.848 44.744 68.3173 42.184 68.744C39.624 69.1707 37.7467 69.512 36.552 69.768C36.7227 70.7067 37.192 72.5413 37.96 75.272C38.728 77.9173 39.496 80.7333 40.264 83.72C41.1173 86.6213 41.8427 89.2667 42.44 91.656C43.1227 94.0453 43.464 95.4107 43.464 95.752C43.464 97.7147 42.7387 99.3787 41.288 100.744C39.8373 102.109 38.1307 102.792 36.168 102.792C34.888 102.792 33.6507 102.237 32.456 101.128C31.2613 100.104 30.1093 98.7387 29 97.032C27.8907 95.3253 26.8667 93.4053 25.928 91.272C24.9893 89.1387 24.136 87.048 23.368 85C22.6 82.952 21.9173 81.032 21.32 79.24C20.7227 77.448 20.2533 75.9973 19.912 74.888C18.4613 75.3147 16.8827 75.784 15.176 76.296C13.4693 76.808 11.8053 77.064 10.184 77.064C7.70933 77.064 5.53333 76.296 3.656 74.76C1.864 73.1387 0.968 71.0907 0.968 68.616C0.968 66.9093 1.39467 65.3733 2.248 64.008C3.10133 62.6427 4.168 61.448 5.448 60.424C6.81333 59.3147 8.264 58.376 9.8 57.608C11.336 56.7547 12.744 56.0293 14.024 55.432C13.3413 51.7627 12.8293 48.0933 12.488 44.424C12.1467 40.7547 11.976 37.0853 11.976 33.416C11.976 28.296 12.36 23.816 13.128 19.976C13.896 16.0507 15.304 12.808 17.352 10.248C19.4 7.60266 22.216 5.59733 25.8 4.23199C29.4693 2.86666 34.1627 2.184 39.88 2.184C41.8427 2.184 44.3173 2.44 47.304 2.952C50.376 3.37866 53.6187 4.06133 57.032 4.99999C60.4453 5.93866 63.8587 7.09066 67.272 8.45599C70.6853 9.82133 73.7573 11.4 76.488 13.192C79.2187 14.8987 81.4373 16.8187 83.144 18.952C84.8507 21.0853 85.704 23.3893 85.704 25.864C85.704 27.3147 85.448 28.7227 84.936 30.088C84.424 31.4533 83.656 32.648 82.632 33.672C81.6933 34.696 80.5413 35.5493 79.176 36.232C77.896 36.8293 76.488 37.128 74.952 37.128C73.928 37.128 72.52 36.8293 70.728 36.232C68.936 35.5493 66.8453 34.7387 64.456 33.8C62.152 32.8613 59.592 31.88 56.776 30.856C54.0453 29.7467 51.144 28.7227 48.072 27.784C46.7067 27.3573 44.8293 27.2293 42.44 27.4C40.0507 27.4853 37.8747 28.296 35.912 29.832C34.0347 31.368 32.7547 33.8427 32.072 37.256C31.3893 40.6693 32.0293 45.448 33.992 51.592ZM96.466 12.424C97.746 8.92533 99.1967 6.06666 100.818 3.84799C102.439 1.62933 104.317 0.519997 106.45 0.519997C109.01 0.519997 110.93 1.33066 112.21 2.952C113.575 4.488 114.258 6.45066 114.258 8.84C114.258 13.6187 113.959 18.44 113.362 23.304C112.85 28.0827 112.253 32.8187 111.57 37.512C110.973 42.12 110.418 46.6853 109.906 51.208C109.394 55.7307 109.138 60.0827 109.138 64.264C109.138 67.6773 109.394 70.3227 109.906 72.2C110.418 74.0773 110.973 75.5707 111.57 76.68C112.253 77.7893 112.85 78.728 113.362 79.496C113.874 80.1787 114.13 81.0747 114.13 82.184C114.13 84.488 113.405 86.4933 111.954 88.2C110.589 89.9067 108.882 90.76 106.834 90.76C103.762 90.76 101.202 90.0347 99.154 88.584C97.106 87.1333 95.4847 85.3413 94.29 83.208C93.0953 80.9893 92.1993 78.5573 91.602 75.912C91.0047 73.2667 90.6207 70.7067 90.45 68.232C90.194 64.8187 90.066 60.7653 90.066 56.072C90.066 51.3787 90.2793 46.5147 90.706 41.48C91.218 36.36 91.9007 31.2827 92.754 26.248C93.6927 21.128 94.93 16.52 96.466 12.424ZM151.459 53.64C152.142 51.336 152.782 48.904 153.379 46.344C153.976 43.784 154.531 41.1387 155.043 38.408C155.555 35.5067 156.536 33.4587 157.987 32.264C159.438 30.984 161.358 30.344 163.747 30.344C165.71 30.344 167.288 30.984 168.483 32.264C169.678 33.4587 170.574 35.0373 171.171 37C171.854 38.9627 172.28 41.1813 172.451 43.656C172.707 46.0453 172.835 48.4347 172.835 50.824C172.835 53.2133 172.792 55.4747 172.707 57.608C172.622 59.7413 172.579 61.4907 172.579 62.856C172.579 64.7333 172.75 66.7387 173.091 68.872C173.518 71.0053 173.944 73.096 174.371 75.144C174.798 77.1067 175.182 78.9413 175.523 80.648C175.864 82.3547 176.035 83.6347 176.035 84.488C176.035 86.6213 175.224 88.456 173.603 89.992C171.982 91.528 170.19 92.296 168.227 92.296C166.008 92.296 164.174 91.784 162.723 90.76C161.272 89.6507 160.035 88.2853 159.011 86.664C157.987 85.0427 157.134 83.2933 156.451 81.416C155.768 79.5387 155.171 77.7467 154.659 76.04C153.464 77.4907 152.312 78.9413 151.203 80.392C150.094 81.7573 148.899 83.0373 147.619 84.232C146.424 85.3413 145.059 86.2373 143.523 86.92C142.072 87.6027 140.323 87.944 138.275 87.944C134.52 87.944 131.363 86.9627 128.803 85C126.243 82.952 124.195 80.4347 122.659 77.448C121.123 74.4613 120.014 71.2187 119.331 67.72C118.648 64.2213 118.307 60.9787 118.307 57.992C118.307 56.2 118.435 53.7253 118.691 50.568C119.032 47.4107 119.63 44.296 120.483 41.224C121.336 38.0667 122.488 35.3787 123.939 33.16C125.475 30.856 127.438 29.704 129.827 29.704C132.046 29.704 133.838 30.472 135.203 32.008C136.654 33.544 137.379 35.4213 137.379 37.64C137.379 39.944 137.251 42.2907 136.995 44.68C136.739 47.0693 136.526 49.5013 136.355 51.976C135.843 58.0347 135.971 62.856 136.739 66.44C137.507 70.024 138.616 72.0293 140.067 72.456C141.603 72.8827 143.352 71.6027 145.315 68.616C147.363 65.6293 149.411 60.6373 151.459 53.64ZM207.559 62.472C207.73 61.5333 208.028 59.9973 208.455 57.864C208.967 55.6453 209.522 53.1707 210.119 50.44C210.802 47.7093 211.484 44.8507 212.167 41.864C212.85 38.8773 213.532 36.0613 214.215 33.416C214.898 30.7707 215.538 28.5093 216.135 26.632C216.732 24.6693 217.202 23.3467 217.543 22.664C218.14 21.384 218.994 20.36 220.103 19.592C221.298 18.7387 222.663 18.312 224.199 18.312C226.162 18.312 227.74 18.9947 228.935 20.36C230.13 21.64 230.727 23.2187 230.727 25.096C230.727 26.888 230.514 29.4053 230.087 32.648C229.746 35.8053 229.234 39.3467 228.551 43.272C227.868 47.112 227.1 51.1227 226.247 55.304C225.394 59.4853 224.455 63.496 223.431 67.336C222.492 71.0907 221.511 74.504 220.487 77.576C219.548 80.648 218.652 82.952 217.799 84.488C216.604 86.536 215.068 88.2427 213.191 89.608C211.314 90.888 209.138 91.528 206.663 91.528C203.506 91.528 200.732 90.76 198.343 89.224C195.954 87.6027 193.906 85.512 192.199 82.952C190.492 80.392 189.042 77.4907 187.847 74.248C186.652 70.92 185.714 67.592 185.031 64.264C184.348 60.936 183.836 57.736 183.495 54.664C183.239 51.5067 183.111 48.776 183.111 46.472C183.111 44.68 183.068 42.504 182.983 39.944C182.983 37.384 183.239 34.952 183.751 32.648C184.263 30.2587 185.202 28.2533 186.567 26.632C187.932 24.9253 190.023 24.072 192.839 24.072C194.887 24.072 196.594 24.7973 197.959 26.248C199.41 27.6987 200.562 29.576 201.415 31.88C202.354 34.184 203.079 36.7867 203.591 39.688C204.188 42.5893 204.615 45.448 204.871 48.264C205.212 51.08 205.468 53.7253 205.639 56.2C205.81 58.6747 206.023 60.68 206.279 62.216L207.559 62.472ZM239.239 65.672C239.239 64.4773 239.239 62.8987 239.239 60.936C239.239 58.9733 239.324 56.8827 239.495 54.664C239.666 52.36 239.922 50.0987 240.263 47.88C240.69 45.576 241.287 43.528 242.055 41.736C242.908 39.8587 243.932 38.3653 245.127 37.256C246.322 36.0613 247.858 35.464 249.735 35.464C251.612 35.464 253.106 35.8053 254.215 36.488C255.41 37.1707 256.306 38.0667 256.903 39.176C257.586 40.2853 258.012 41.608 258.183 43.144C258.354 44.5947 258.439 46.1307 258.439 47.752C258.439 53.384 258.183 58.9307 257.671 64.392C257.159 69.8533 256.903 75.4 256.903 81.032C256.903 83.2507 256.263 85.256 254.983 87.048C253.703 88.7547 251.826 89.608 249.351 89.608C246.962 89.608 245.084 88.6693 243.719 86.792C242.439 84.9147 241.458 82.696 240.775 80.136C240.092 77.4907 239.666 74.8453 239.495 72.2C239.324 69.4693 239.239 67.2933 239.239 65.672ZM254.087 5.256C256.476 5.256 258.524 6.10933 260.231 7.81599C261.938 9.43733 262.791 11.4427 262.791 13.832C262.791 15.0267 262.492 16.3493 261.895 17.8C261.383 19.2507 260.658 20.616 259.719 21.896C258.78 23.0907 257.714 24.1147 256.519 24.968C255.324 25.8213 254.087 26.248 252.807 26.248C249.82 26.248 247.687 25.1813 246.407 23.048C245.212 20.8293 244.7 18.3973 244.871 15.752C245.127 13.1067 246.023 10.7173 247.559 8.58399C249.18 6.36533 251.356 5.256 254.087 5.256Z" fill="#E20F32"/>
</svg>
