<svg width="486" height="117" viewBox="0 0 486 117" fill="none" xmlns="http://www.w3.org/2000/svg">
<path d="M147.416 51.9587C149.72 51.788 152.579 51.532 155.992 51.1907C159.406 50.764 162.904 50.3373 166.488 49.9107C170.158 49.484 173.699 49.1427 177.112 48.8867C180.526 48.5453 183.384 48.3747 185.688 48.3747C187.736 48.3747 189.358 49.228 190.552 50.9347C191.832 52.6413 192.472 54.4333 192.472 56.3107C192.472 57.676 191.576 58.956 189.784 60.1507C187.992 61.26 185.731 62.284 183 63.2227C180.27 64.1613 177.198 65.0147 173.784 65.7827C170.456 66.4653 167.214 67.1053 164.056 67.7027C160.984 68.2147 158.168 68.684 155.608 69.1107C153.048 69.5373 151.171 69.8787 149.976 70.1347C150.147 71.0733 150.616 72.908 151.384 75.6387C152.152 78.284 152.92 81.1 153.688 84.0867C154.542 86.988 155.267 89.6333 155.864 92.0227C156.547 94.412 156.888 95.7773 156.888 96.1187C156.888 98.0813 156.163 99.7453 154.712 101.111C153.262 102.476 151.555 103.159 149.592 103.159C148.312 103.159 147.075 102.604 145.88 101.495C144.686 100.471 143.534 99.1053 142.424 97.3987C141.315 95.692 140.291 93.772 139.352 91.6387C138.414 89.5053 137.56 87.4147 136.792 85.3667C136.024 83.3187 135.342 81.3987 134.744 79.6067C134.147 77.8147 133.678 76.364 133.336 75.2547C131.886 75.6813 130.307 76.1507 128.6 76.6627C126.894 77.1747 125.23 77.4307 123.608 77.4307C121.134 77.4307 118.958 76.6627 117.08 75.1267C115.288 73.5053 114.392 71.4573 114.392 68.9827C114.392 67.276 114.819 65.74 115.672 64.3747C116.526 63.0093 117.592 61.8147 118.872 60.7907C120.238 59.6813 121.688 58.7427 123.224 57.9747C124.76 57.1213 126.168 56.396 127.448 55.7987C126.766 52.1293 126.254 48.46 125.912 44.7907C125.571 41.1213 125.4 37.452 125.4 33.7827C125.4 28.6627 125.784 24.1827 126.552 20.3427C127.32 16.4173 128.728 13.1747 130.776 10.6147C132.824 7.96933 135.64 5.964 139.224 4.59866C142.894 3.23333 147.587 2.55067 153.304 2.55067C155.267 2.55067 157.742 2.80667 160.728 3.31866C163.8 3.74533 167.043 4.428 170.456 5.36666C173.87 6.30533 177.283 7.45733 180.696 8.82266C184.11 10.188 187.182 11.7667 189.912 13.5587C192.643 15.2653 194.862 17.1853 196.568 19.3187C198.275 21.452 199.128 23.756 199.128 26.2307C199.128 27.6813 198.872 29.0893 198.36 30.4547C197.848 31.82 197.08 33.0147 196.056 34.0387C195.118 35.0627 193.966 35.916 192.6 36.5987C191.32 37.196 189.912 37.4947 188.376 37.4947C187.352 37.4947 185.944 37.196 184.152 36.5987C182.36 35.916 180.27 35.1053 177.88 34.1667C175.576 33.228 173.016 32.2467 170.2 31.2227C167.47 30.1133 164.568 29.0893 161.496 28.1507C160.131 27.724 158.254 27.596 155.864 27.7667C153.475 27.852 151.299 28.6627 149.336 30.1987C147.459 31.7347 146.179 34.2093 145.496 37.6227C144.814 41.036 145.454 45.8147 147.416 51.9587ZM209.89 12.7907C211.17 9.292 212.621 6.43333 214.242 4.21466C215.864 1.996 217.741 0.886665 219.874 0.886665C222.434 0.886665 224.354 1.69733 225.634 3.31866C227 4.85467 227.682 6.81733 227.682 9.20667C227.682 13.9853 227.384 18.8067 226.786 23.6707C226.274 28.4493 225.677 33.1853 224.994 37.8787C224.397 42.4867 223.842 47.052 223.33 51.5747C222.818 56.0973 222.562 60.4493 222.562 64.6307C222.562 68.044 222.818 70.6893 223.33 72.5667C223.842 74.444 224.397 75.9373 224.994 77.0467C225.677 78.156 226.274 79.0947 226.786 79.8627C227.298 80.5453 227.554 81.4413 227.554 82.5507C227.554 84.8547 226.829 86.86 225.378 88.5667C224.013 90.2733 222.306 91.1267 220.258 91.1267C217.186 91.1267 214.626 90.4013 212.578 88.9507C210.53 87.5 208.909 85.708 207.714 83.5747C206.52 81.356 205.624 78.924 205.026 76.2787C204.429 73.6333 204.045 71.0733 203.874 68.5987C203.618 65.1853 203.49 61.132 203.49 56.4387C203.49 51.7453 203.704 46.8813 204.13 41.8467C204.642 36.7267 205.325 31.6493 206.178 26.6147C207.117 21.4947 208.354 16.8867 209.89 12.7907ZM264.883 54.0067C265.566 51.7027 266.206 49.2707 266.803 46.7107C267.401 44.1507 267.955 41.5053 268.467 38.7747C268.979 35.8733 269.961 33.8253 271.411 32.6307C272.862 31.3507 274.782 30.7107 277.171 30.7107C279.134 30.7107 280.713 31.3507 281.907 32.6307C283.102 33.8253 283.998 35.404 284.595 37.3667C285.278 39.3293 285.705 41.548 285.875 44.0227C286.131 46.412 286.259 48.8013 286.259 51.1907C286.259 53.58 286.217 55.8413 286.131 57.9747C286.046 60.108 286.003 61.8573 286.003 63.2227C286.003 65.1 286.174 67.1053 286.515 69.2387C286.942 71.372 287.369 73.4627 287.795 75.5107C288.222 77.4733 288.606 79.308 288.947 81.0147C289.289 82.7213 289.459 84.0013 289.459 84.8547C289.459 86.988 288.649 88.8227 287.027 90.3587C285.406 91.8947 283.614 92.6627 281.651 92.6627C279.433 92.6627 277.598 92.1507 276.147 91.1267C274.697 90.0173 273.459 88.652 272.435 87.0307C271.411 85.4093 270.558 83.66 269.875 81.7827C269.193 79.9053 268.595 78.1133 268.083 76.4067C266.889 77.8573 265.737 79.308 264.627 80.7587C263.518 82.124 262.323 83.404 261.043 84.5987C259.849 85.708 258.483 86.604 256.947 87.2867C255.497 87.9693 253.747 88.3107 251.699 88.3107C247.945 88.3107 244.787 87.3293 242.227 85.3667C239.667 83.3187 237.619 80.8013 236.083 77.8147C234.547 74.828 233.438 71.5853 232.755 68.0867C232.073 64.588 231.731 61.3453 231.731 58.3587C231.731 56.5667 231.859 54.092 232.115 50.9347C232.457 47.7773 233.054 44.6627 233.907 41.5907C234.761 38.4333 235.913 35.7453 237.363 33.5267C238.899 31.2227 240.862 30.0707 243.251 30.0707C245.47 30.0707 247.262 30.8387 248.627 32.3747C250.078 33.9107 250.803 35.788 250.803 38.0067C250.803 40.3107 250.675 42.6573 250.419 45.0467C250.163 47.436 249.95 49.868 249.779 52.3427C249.267 58.4013 249.395 63.2227 250.163 66.8067C250.931 70.3907 252.041 72.396 253.491 72.8227C255.027 73.2493 256.777 71.9693 258.739 68.9827C260.787 65.996 262.835 61.004 264.883 54.0067ZM320.983 62.8387C321.154 61.9 321.453 60.364 321.879 58.2307C322.391 56.012 322.946 53.5373 323.543 50.8067C324.226 48.076 324.909 45.2173 325.591 42.2307C326.274 39.244 326.957 36.428 327.639 33.7827C328.322 31.1373 328.962 28.876 329.559 26.9987C330.157 25.036 330.626 23.7133 330.967 23.0307C331.565 21.7507 332.418 20.7267 333.527 19.9587C334.722 19.1053 336.087 18.6787 337.623 18.6787C339.586 18.6787 341.165 19.3613 342.359 20.7267C343.554 22.0067 344.151 23.5853 344.151 25.4627C344.151 27.2547 343.938 29.772 343.511 33.0147C343.17 36.172 342.658 39.7133 341.975 43.6387C341.293 47.4787 340.525 51.4893 339.671 55.6707C338.818 59.852 337.879 63.8627 336.855 67.7027C335.917 71.4573 334.935 74.8707 333.911 77.9427C332.973 81.0147 332.077 83.3187 331.223 84.8547C330.029 86.9027 328.493 88.6093 326.615 89.9747C324.738 91.2547 322.562 91.8947 320.087 91.8947C316.93 91.8947 314.157 91.1267 311.767 89.5907C309.378 87.9693 307.33 85.8787 305.623 83.3187C303.917 80.7587 302.466 77.8573 301.271 74.6147C300.077 71.2867 299.138 67.9587 298.455 64.6307C297.773 61.3027 297.261 58.1027 296.919 55.0307C296.663 51.8733 296.535 49.1427 296.535 46.8387C296.535 45.0467 296.493 42.8707 296.407 40.3107C296.407 37.7507 296.663 35.3187 297.175 33.0147C297.687 30.6253 298.626 28.62 299.991 26.9987C301.357 25.292 303.447 24.4387 306.263 24.4387C308.311 24.4387 310.018 25.164 311.383 26.6147C312.834 28.0653 313.986 29.9427 314.839 32.2467C315.778 34.5507 316.503 37.1533 317.015 40.0547C317.613 42.956 318.039 45.8147 318.295 48.6307C318.637 51.4467 318.893 54.092 319.063 56.5667C319.234 59.0413 319.447 61.0467 319.703 62.5827L320.983 62.8387ZM352.663 66.0387C352.663 64.844 352.663 63.2653 352.663 61.3027C352.663 59.34 352.749 57.2493 352.919 55.0307C353.09 52.7267 353.346 50.4653 353.687 48.2467C354.114 45.9427 354.711 43.8947 355.479 42.1027C356.333 40.2253 357.357 38.732 358.551 37.6227C359.746 36.428 361.282 35.8307 363.159 35.8307C365.037 35.8307 366.53 36.172 367.639 36.8547C368.834 37.5373 369.73 38.4333 370.327 39.5427C371.01 40.652 371.437 41.9747 371.607 43.5107C371.778 44.9613 371.863 46.4973 371.863 48.1187C371.863 53.7507 371.607 59.2973 371.095 64.7587C370.583 70.22 370.327 75.7667 370.327 81.3987C370.327 83.6173 369.687 85.6227 368.407 87.4147C367.127 89.1213 365.25 89.9747 362.775 89.9747C360.386 89.9747 358.509 89.036 357.143 87.1587C355.863 85.2813 354.882 83.0627 354.199 80.5027C353.517 77.8573 353.09 75.212 352.919 72.5667C352.749 69.836 352.663 67.66 352.663 66.0387ZM367.511 5.62267C369.901 5.62267 371.949 6.476 373.655 8.18266C375.362 9.804 376.215 11.8093 376.215 14.1987C376.215 15.3933 375.917 16.716 375.319 18.1667C374.807 19.6173 374.082 20.9827 373.143 22.2627C372.205 23.4573 371.138 24.4813 369.943 25.3347C368.749 26.188 367.511 26.6147 366.231 26.6147C363.245 26.6147 361.111 25.548 359.831 23.4147C358.637 21.196 358.125 18.764 358.295 16.1187C358.551 13.4733 359.447 11.084 360.983 8.95066C362.605 6.732 364.781 5.62267 367.511 5.62267Z" fill="white"/>
</svg>
