<svg width="131" height="52" viewBox="0 0 131 52" fill="none" xmlns="http://www.w3.org/2000/svg">
<path d="M16.996 26.296C18.148 26.2107 19.5773 26.0827 21.284 25.912C22.9907 25.6987 24.74 25.4853 26.532 25.272C28.3667 25.0587 30.1373 24.888 31.844 24.76C33.5507 24.5893 34.98 24.504 36.132 24.504C37.156 24.504 37.9667 24.9307 38.564 25.784C39.204 26.6373 39.524 27.5333 39.524 28.472C39.524 29.1547 39.076 29.7947 38.18 30.392C37.284 30.9467 36.1533 31.4587 34.788 31.928C33.4227 32.3973 31.8867 32.824 30.18 33.208C28.516 33.5493 26.8947 33.8693 25.316 34.168C23.78 34.424 22.372 34.6587 21.092 34.872C19.812 35.0853 18.8733 35.256 18.276 35.384C18.3613 35.8533 18.596 36.7707 18.98 38.136C19.364 39.4587 19.748 40.8667 20.132 42.36C20.5587 43.8107 20.9213 45.1333 21.22 46.328C21.5613 47.5227 21.732 48.2053 21.732 48.376C21.732 49.3573 21.3693 50.1893 20.644 50.872C19.9187 51.5547 19.0653 51.896 18.084 51.896C17.444 51.896 16.8253 51.6187 16.228 51.064C15.6307 50.552 15.0547 49.8693 14.5 49.016C13.9453 48.1627 13.4333 47.2027 12.964 46.136C12.4947 45.0693 12.068 44.024 11.684 43C11.3 41.976 10.9587 41.016 10.66 40.12C10.3613 39.224 10.1267 38.4987 9.956 37.944C9.23067 38.1573 8.44133 38.392 7.588 38.648C6.73467 38.904 5.90267 39.032 5.092 39.032C3.85467 39.032 2.76667 38.648 1.828 37.88C0.932 37.0693 0.484 36.0453 0.484 34.808C0.484 33.9547 0.697333 33.1867 1.124 32.504C1.55067 31.8213 2.084 31.224 2.724 30.712C3.40667 30.1573 4.132 29.688 4.9 29.304C5.668 28.8773 6.372 28.5147 7.012 28.216C6.67067 26.3813 6.41467 24.5467 6.244 22.712C6.07333 20.8773 5.988 19.0427 5.988 17.208C5.988 14.648 6.18 12.408 6.564 10.488C6.948 8.52533 7.652 6.904 8.676 5.624C9.7 4.30133 11.108 3.29867 12.9 2.616C14.7347 1.93333 17.0813 1.592 19.94 1.592C20.9213 1.592 22.1587 1.72 23.652 1.976C25.188 2.18933 26.8093 2.53066 28.516 3C30.2227 3.46933 31.9293 4.04533 33.636 4.728C35.3427 5.41066 36.8787 6.2 38.244 7.096C39.6093 7.94933 40.7187 8.90933 41.572 9.976C42.4253 11.0427 42.852 12.1947 42.852 13.432C42.852 14.1573 42.724 14.8613 42.468 15.544C42.212 16.2267 41.828 16.824 41.316 17.336C40.8467 17.848 40.2707 18.2747 39.588 18.616C38.948 18.9147 38.244 19.064 37.476 19.064C36.964 19.064 36.26 18.9147 35.364 18.616C34.468 18.2747 33.4227 17.8693 32.228 17.4C31.076 16.9307 29.796 16.44 28.388 15.928C27.0227 15.3733 25.572 14.8613 24.036 14.392C23.3533 14.1787 22.4147 14.1147 21.22 14.2C20.0253 14.2427 18.9373 14.648 17.956 15.416C17.0173 16.184 16.3773 17.4213 16.036 19.128C15.6947 20.8347 16.0147 23.224 16.996 26.296ZM48.108 6.712C48.748 4.96266 49.4733 3.53333 50.284 2.424C51.0947 1.31466 52.0333 0.759998 53.1 0.759998C54.38 0.759998 55.34 1.16533 55.98 1.976C56.6627 2.744 57.004 3.72533 57.004 4.92C57.004 7.30933 56.8547 9.72 56.556 12.152C56.3 14.5413 56.0013 16.9093 55.66 19.256C55.3613 21.56 55.084 23.8427 54.828 26.104C54.572 28.3653 54.444 30.5413 54.444 32.632C54.444 34.3387 54.572 35.6613 54.828 36.6C55.084 37.5387 55.3613 38.2853 55.66 38.84C56.0013 39.3947 56.3 39.864 56.556 40.248C56.812 40.5893 56.94 41.0373 56.94 41.592C56.94 42.744 56.5773 43.7467 55.852 44.6C55.1693 45.4533 54.316 45.88 53.292 45.88C51.756 45.88 50.476 45.5173 49.452 44.792C48.428 44.0667 47.6173 43.1707 47.02 42.104C46.4227 40.9947 45.9747 39.7787 45.676 38.456C45.3773 37.1333 45.1853 35.8533 45.1 34.616C44.972 32.9093 44.908 30.8827 44.908 28.536C44.908 26.1893 45.0147 23.7573 45.228 21.24C45.484 18.68 45.8253 16.1413 46.252 13.624C46.7213 11.064 47.34 8.76 48.108 6.712ZM75.4795 27.32C75.8208 26.168 76.1408 24.952 76.4395 23.672C76.7382 22.392 77.0155 21.0693 77.2715 19.704C77.5275 18.2533 78.0182 17.2293 78.7435 16.632C79.4688 15.992 80.4288 15.672 81.6235 15.672C82.6048 15.672 83.3942 15.992 83.9915 16.632C84.5888 17.2293 85.0368 18.0187 85.3355 19C85.6768 19.9813 85.8902 21.0907 85.9755 22.328C86.1035 23.5227 86.1675 24.7173 86.1675 25.912C86.1675 27.1067 86.1462 28.2373 86.1035 29.304C86.0608 30.3707 86.0395 31.2453 86.0395 31.928C86.0395 32.8667 86.1248 33.8693 86.2955 34.936C86.5088 36.0027 86.7222 37.048 86.9355 38.072C87.1488 39.0533 87.3408 39.9707 87.5115 40.824C87.6822 41.6773 87.7675 42.3173 87.7675 42.744C87.7675 43.8107 87.3622 44.728 86.5515 45.496C85.7408 46.264 84.8448 46.648 83.8635 46.648C82.7542 46.648 81.8368 46.392 81.1115 45.88C80.3862 45.3253 79.7675 44.6427 79.2555 43.832C78.7435 43.0213 78.3168 42.1467 77.9755 41.208C77.6342 40.2693 77.3355 39.3733 77.0795 38.52C76.4822 39.2453 75.9062 39.9707 75.3515 40.696C74.7968 41.3787 74.1995 42.0187 73.5595 42.616C72.9622 43.1707 72.2795 43.6187 71.5115 43.96C70.7862 44.3013 69.9115 44.472 68.8875 44.472C67.0102 44.472 65.4315 43.9813 64.1515 43C62.8715 41.976 61.8475 40.7173 61.0795 39.224C60.3115 37.7307 59.7568 36.1093 59.4155 34.36C59.0742 32.6107 58.9035 30.9893 58.9035 29.496C58.9035 28.6 58.9675 27.3627 59.0955 25.784C59.2662 24.2053 59.5648 22.648 59.9915 21.112C60.4182 19.5333 60.9942 18.1893 61.7195 17.08C62.4875 15.928 63.4688 15.352 64.6635 15.352C65.7728 15.352 66.6688 15.736 67.3515 16.504C68.0768 17.272 68.4395 18.2107 68.4395 19.32C68.4395 20.472 68.3755 21.6453 68.2475 22.84C68.1195 24.0347 68.0128 25.2507 67.9275 26.488C67.6715 29.5173 67.7355 31.928 68.1195 33.72C68.5035 35.512 69.0582 36.5147 69.7835 36.728C70.5515 36.9413 71.4262 36.3013 72.4075 34.808C73.4315 33.3147 74.4555 30.8187 75.4795 27.32ZM103.405 31.736C103.49 31.2667 103.639 30.4987 103.853 29.432C104.109 28.3227 104.386 27.0853 104.685 25.72C105.026 24.3547 105.367 22.9253 105.708 21.432C106.05 19.9387 106.391 18.5307 106.733 17.208C107.074 15.8853 107.394 14.7547 107.693 13.816C107.991 12.8347 108.226 12.1733 108.397 11.832C108.695 11.192 109.122 10.68 109.677 10.296C110.274 9.86933 110.957 9.656 111.725 9.656C112.706 9.656 113.495 9.99733 114.093 10.68C114.69 11.32 114.989 12.1093 114.989 13.048C114.989 13.944 114.882 15.2027 114.669 16.824C114.498 18.4027 114.242 20.1733 113.901 22.136C113.559 24.056 113.175 26.0613 112.749 28.152C112.322 30.2427 111.853 32.248 111.341 34.168C110.871 36.0453 110.381 37.752 109.869 39.288C109.399 40.824 108.951 41.976 108.525 42.744C107.927 43.768 107.159 44.6213 106.221 45.304C105.282 45.944 104.194 46.264 102.957 46.264C101.378 46.264 99.9912 45.88 98.7965 45.112C97.6018 44.3013 96.5778 43.256 95.7245 41.976C94.8712 40.696 94.1458 39.2453 93.5485 37.624C92.9512 35.96 92.4818 34.296 92.1405 32.632C91.7992 30.968 91.5432 29.368 91.3725 27.832C91.2445 26.2533 91.1805 24.888 91.1805 23.736C91.1805 22.84 91.1592 21.752 91.1165 20.472C91.1165 19.192 91.2445 17.976 91.5005 16.824C91.7565 15.6293 92.2258 14.6267 92.9085 13.816C93.5912 12.9627 94.6365 12.536 96.0445 12.536C97.0685 12.536 97.9218 12.8987 98.6045 13.624C99.3298 14.3493 99.9058 15.288 100.333 16.44C100.802 17.592 101.165 18.8933 101.421 20.344C101.719 21.7947 101.933 23.224 102.061 24.632C102.231 26.04 102.359 27.3627 102.445 28.6C102.53 29.8373 102.637 30.84 102.765 31.608L103.405 31.736ZM118.62 33.336C118.62 32.7387 118.62 31.9493 118.62 30.968C118.62 29.9867 118.662 28.9413 118.748 27.832C118.833 26.68 118.961 25.5493 119.132 24.44C119.345 23.288 119.644 22.264 120.028 21.368C120.454 20.4293 120.966 19.6827 121.564 19.128C122.161 18.5307 122.929 18.232 123.868 18.232C124.806 18.232 125.553 18.4027 126.108 18.744C126.705 19.0853 127.153 19.5333 127.452 20.088C127.793 20.6427 128.006 21.304 128.092 22.072C128.177 22.7973 128.22 23.5653 128.22 24.376C128.22 27.192 128.092 29.9653 127.836 32.696C127.58 35.4267 127.452 38.2 127.452 41.016C127.452 42.1253 127.132 43.128 126.492 44.024C125.852 44.8773 124.913 45.304 123.676 45.304C122.481 45.304 121.542 44.8347 120.86 43.896C120.22 42.9573 119.729 41.848 119.388 40.568C119.046 39.2453 118.833 37.9227 118.748 36.6C118.662 35.2347 118.62 34.1467 118.62 33.336ZM126.044 3.128C127.238 3.128 128.262 3.55466 129.116 4.408C129.969 5.21866 130.396 6.22133 130.396 7.416C130.396 8.01333 130.246 8.67466 129.948 9.4C129.692 10.1253 129.329 10.808 128.86 11.448C128.39 12.0453 127.857 12.5573 127.26 12.984C126.662 13.4107 126.044 13.624 125.404 13.624C123.91 13.624 122.844 13.0907 122.204 12.024C121.606 10.9147 121.35 9.69866 121.436 8.376C121.564 7.05333 122.012 5.85866 122.78 4.792C123.59 3.68266 124.678 3.128 126.044 3.128Z" fill="#FF3A0F"/>
</svg>
