<svg width="552" height="121" viewBox="0 0 552 121" fill="none" xmlns="http://www.w3.org/2000/svg">
<path d="M12.2835 97.152C8.52883 97.152 5.58483 96.128 3.4515 94.08C1.4035 91.9467 0.3795 88.9173 0.3795 84.992V17.92C0.3795 13.9947 1.4035 11.008 3.4515 8.96C5.58483 6.82666 8.65683 5.75999 12.6675 5.75999H55.2915C58.3635 5.75999 60.6675 6.52799 62.2035 8.064C63.7395 9.6 64.5075 11.8187 64.5075 14.72C64.5075 17.7067 63.7395 20.0107 62.2035 21.632C60.6675 23.168 58.3635 23.936 55.2915 23.936H23.9315V42.112H52.4755C55.4622 42.112 57.7235 42.88 59.2595 44.416C60.8808 45.952 61.6915 48.1707 61.6915 51.072C61.6915 54.0587 60.8808 56.32 59.2595 57.856C57.7235 59.392 55.4622 60.16 52.4755 60.16H23.9315V84.992C23.9315 93.0987 20.0488 97.152 12.2835 97.152ZM101.78 97.408C93.5875 97.408 87.5288 95.232 83.6035 90.88C79.7635 86.4427 77.8435 79.7867 77.8435 70.912V16.128C77.8435 12.3733 78.8248 9.51466 80.7875 7.55199C82.7502 5.58933 85.5235 4.60799 89.1075 4.60799C92.7768 4.60799 95.5928 5.58933 97.5555 7.55199C99.6035 9.51466 100.628 12.3733 100.628 16.128V70.144C100.628 73.3013 101.225 75.6053 102.42 77.056C103.7 78.5067 105.321 79.232 107.284 79.232C107.881 79.232 108.478 79.1893 109.076 79.104C109.758 78.9333 110.484 78.8053 111.252 78.72C112.702 78.72 113.769 79.2747 114.452 80.384C115.22 81.4933 115.604 83.7547 115.604 87.168C115.604 90.1547 115.006 92.416 113.812 93.952C112.617 95.4027 110.782 96.3413 108.308 96.768C107.625 96.8533 106.644 96.9813 105.364 97.152C104.084 97.3227 102.889 97.408 101.78 97.408ZM145.646 97.408C140.184 97.408 135.704 96.4267 132.206 94.464C128.707 92.416 126.062 89.3867 124.27 85.376C122.563 81.3653 121.71 76.288 121.71 70.144V43.264C121.71 39.5093 122.691 36.6933 124.654 34.816C126.616 32.8533 129.432 31.872 133.102 31.872C136.771 31.872 139.587 32.8533 141.55 34.816C143.512 36.6933 144.494 39.5093 144.494 43.264V70.784C144.494 73.856 145.134 76.16 146.414 77.696C147.694 79.232 149.699 80 152.43 80C155.502 80 158.019 78.8907 159.982 76.672C161.944 74.4533 162.926 71.5093 162.926 67.84V43.264C162.926 39.5093 163.907 36.6933 165.87 34.816C167.832 32.8533 170.648 31.872 174.318 31.872C177.987 31.872 180.803 32.8533 182.766 34.816C184.728 36.6933 185.71 39.5093 185.71 43.264V85.632C185.71 93.312 182.04 97.152 174.702 97.152C171.118 97.152 168.344 96.1707 166.382 94.208C164.419 92.2453 163.438 89.3867 163.438 85.632V78.208L165.486 84.48C163.608 88.6613 160.963 91.8613 157.55 94.08C154.222 96.2987 150.254 97.408 145.646 97.408ZM226.623 97.152C223.636 97.152 221.076 96.4267 218.943 94.976C216.895 93.44 215.188 91.1787 213.823 88.192L195.519 46.336C194.495 43.776 194.153 41.3867 194.495 39.168C194.836 36.9493 195.903 35.2 197.695 33.92C199.572 32.5547 202.132 31.872 205.375 31.872C208.105 31.872 210.281 32.512 211.903 33.792C213.609 34.9867 215.145 37.376 216.511 40.96L229.439 74.24H225.087L238.655 40.832C240.02 37.3333 241.556 34.9867 243.263 33.792C244.969 32.512 247.316 31.872 250.303 31.872C252.863 31.872 254.911 32.5547 256.447 33.92C258.068 35.2 259.049 36.9493 259.391 39.168C259.732 41.3867 259.305 43.776 258.111 46.336L239.423 88.32C238.143 91.3067 236.436 93.5253 234.303 94.976C232.255 96.4267 229.695 97.152 226.623 97.152ZM280.108 97.152C276.524 97.152 273.75 96.0853 271.788 93.952C269.825 91.8187 268.844 88.7467 268.844 84.736V44.288C268.844 40.2773 269.825 37.2053 271.788 35.072C273.75 32.9387 276.524 31.872 280.108 31.872C283.777 31.872 286.593 32.9387 288.556 35.072C290.604 37.2053 291.628 40.2773 291.628 44.288V84.736C291.628 88.7467 290.646 91.8187 288.684 93.952C286.721 96.0853 283.862 97.152 280.108 97.152ZM280.108 22.784C276.097 22.784 272.982 21.8453 270.764 19.968C268.63 18.0907 267.564 15.36 267.564 11.776C267.564 8.27733 268.63 5.58933 270.764 3.712C272.982 1.83466 276.097 0.895996 280.108 0.895996C284.289 0.895996 287.446 1.83466 289.58 3.712C291.713 5.58933 292.78 8.27733 292.78 11.776C292.78 15.36 291.713 18.0907 289.58 19.968C287.446 21.8453 284.289 22.784 280.108 22.784Z" fill="#FFF9F9"/>
<path d="M311.354 97.152C308.708 97.152 306.49 96.5547 304.698 95.36C302.906 94.08 301.796 92.3733 301.37 90.24C300.943 88.0213 301.327 85.5467 302.522 82.816L334.394 14.208C335.93 10.88 337.807 8.448 340.026 6.91199C342.33 5.37599 344.932 4.60799 347.834 4.60799C350.735 4.60799 353.252 5.37599 355.386 6.91199C357.604 8.448 359.524 10.88 361.146 14.208L393.018 82.816C394.383 85.5467 394.852 88.0213 394.426 90.24C394.084 92.4587 393.018 94.1653 391.226 95.36C389.519 96.5547 387.386 97.152 384.826 97.152C381.412 97.152 378.767 96.384 376.89 94.848C375.098 93.312 373.476 90.8373 372.026 87.424L365.114 71.168L374.074 77.696H321.338L330.426 71.168L323.514 87.424C321.978 90.8373 320.399 93.312 318.778 94.848C317.156 96.384 314.682 97.152 311.354 97.152ZM347.578 30.336L332.729 65.792L329.146 59.648H366.394L362.81 65.792L347.834 30.336H347.578ZM414.233 120.192C410.649 120.192 407.875 119.211 405.913 117.248C403.95 115.285 402.969 112.427 402.969 108.672V43.264C402.969 39.5947 403.907 36.7787 405.785 34.816C407.747 32.8533 410.521 31.872 414.105 31.872C417.774 31.872 420.547 32.8533 422.425 34.816C424.387 36.7787 425.369 39.5947 425.369 43.264V50.688L423.961 44.416C425.155 40.576 427.63 37.504 431.385 35.2C435.225 32.8107 439.577 31.616 444.441 31.616C449.902 31.616 454.681 32.9387 458.777 35.584C462.958 38.2293 466.201 41.984 468.505 46.848C470.809 51.712 471.961 57.6 471.961 64.512C471.961 71.2533 470.809 77.0987 468.505 82.048C466.201 86.9973 462.958 90.7947 458.777 93.44C454.681 96.0853 449.902 97.408 444.441 97.408C439.747 97.408 435.523 96.2987 431.769 94.08C428.014 91.8613 425.497 88.96 424.217 85.376H425.753V108.672C425.753 112.427 424.729 115.285 422.681 117.248C420.718 119.211 417.902 120.192 414.233 120.192ZM437.273 80.64C439.577 80.64 441.582 80.0853 443.289 78.976C445.081 77.7813 446.489 76.032 447.513 73.728C448.537 71.3387 449.049 68.2667 449.049 64.512C449.049 58.7947 447.939 54.6987 445.721 52.224C443.502 49.664 440.686 48.384 437.273 48.384C434.969 48.384 432.921 48.9387 431.129 50.048C429.337 51.1573 427.929 52.9067 426.905 55.296C425.881 57.6 425.369 60.672 425.369 64.512C425.369 70.144 426.478 74.24 428.697 76.8C430.915 79.36 433.774 80.64 437.273 80.64ZM493.358 120.192C489.774 120.192 487 119.211 485.038 117.248C483.075 115.285 482.094 112.427 482.094 108.672V43.264C482.094 39.5947 483.032 36.7787 484.91 34.816C486.872 32.8533 489.646 31.872 493.23 31.872C496.899 31.872 499.672 32.8533 501.55 34.816C503.512 36.7787 504.494 39.5947 504.494 43.264V50.688L503.086 44.416C504.28 40.576 506.755 37.504 510.51 35.2C514.35 32.8107 518.702 31.616 523.566 31.616C529.027 31.616 533.806 32.9387 537.902 35.584C542.083 38.2293 545.326 41.984 547.63 46.848C549.934 51.712 551.086 57.6 551.086 64.512C551.086 71.2533 549.934 77.0987 547.63 82.048C545.326 86.9973 542.083 90.7947 537.902 93.44C533.806 96.0853 529.027 97.408 523.566 97.408C518.872 97.408 514.648 96.2987 510.894 94.08C507.139 91.8613 504.622 88.96 503.342 85.376H504.878V108.672C504.878 112.427 503.854 115.285 501.806 117.248C499.843 119.211 497.027 120.192 493.358 120.192ZM516.398 80.64C518.702 80.64 520.707 80.0853 522.414 78.976C524.206 77.7813 525.614 76.032 526.638 73.728C527.662 71.3387 528.174 68.2667 528.174 64.512C528.174 58.7947 527.064 54.6987 524.846 52.224C522.627 49.664 519.811 48.384 516.398 48.384C514.094 48.384 512.046 48.9387 510.254 50.048C508.462 51.1573 507.054 52.9067 506.03 55.296C505.006 57.6 504.494 60.672 504.494 64.512C504.494 70.144 505.603 74.24 507.822 76.8C510.04 79.36 512.899 80.64 516.398 80.64Z" fill="#FF3A0F"/>
<path d="M311.354 97.152C308.708 97.152 306.49 96.5547 304.698 95.36C302.906 94.08 301.796 92.3733 301.37 90.24C300.943 88.0213 301.327 85.5467 302.522 82.816L334.394 14.208C335.93 10.88 337.807 8.448 340.026 6.91199C342.33 5.37599 344.932 4.60799 347.834 4.60799C350.735 4.60799 353.252 5.37599 355.386 6.91199C357.604 8.448 359.524 10.88 361.146 14.208L393.018 82.816C394.383 85.5467 394.852 88.0213 394.426 90.24C394.084 92.4587 393.018 94.1653 391.226 95.36C389.519 96.5547 387.386 97.152 384.826 97.152C381.412 97.152 378.767 96.384 376.89 94.848C375.098 93.312 373.476 90.8373 372.026 87.424L365.114 71.168L374.074 77.696H321.338L330.426 71.168L323.514 87.424C321.978 90.8373 320.399 93.312 318.778 94.848C317.156 96.384 314.682 97.152 311.354 97.152ZM347.578 30.336L332.729 65.792L329.146 59.648H366.394L362.81 65.792L347.834 30.336H347.578ZM414.233 120.192C410.649 120.192 407.875 119.211 405.913 117.248C403.95 115.285 402.969 112.427 402.969 108.672V43.264C402.969 39.5947 403.907 36.7787 405.785 34.816C407.747 32.8533 410.521 31.872 414.105 31.872C417.774 31.872 420.547 32.8533 422.425 34.816C424.387 36.7787 425.369 39.5947 425.369 43.264V50.688L423.961 44.416C425.155 40.576 427.63 37.504 431.385 35.2C435.225 32.8107 439.577 31.616 444.441 31.616C449.902 31.616 454.681 32.9387 458.777 35.584C462.958 38.2293 466.201 41.984 468.505 46.848C470.809 51.712 471.961 57.6 471.961 64.512C471.961 71.2533 470.809 77.0987 468.505 82.048C466.201 86.9973 462.958 90.7947 458.777 93.44C454.681 96.0853 449.902 97.408 444.441 97.408C439.747 97.408 435.523 96.2987 431.769 94.08C428.014 91.8613 425.497 88.96 424.217 85.376H425.753V108.672C425.753 112.427 424.729 115.285 422.681 117.248C420.718 119.211 417.902 120.192 414.233 120.192ZM437.273 80.64C439.577 80.64 441.582 80.0853 443.289 78.976C445.081 77.7813 446.489 76.032 447.513 73.728C448.537 71.3387 449.049 68.2667 449.049 64.512C449.049 58.7947 447.939 54.6987 445.721 52.224C443.502 49.664 440.686 48.384 437.273 48.384C434.969 48.384 432.921 48.9387 431.129 50.048C429.337 51.1573 427.929 52.9067 426.905 55.296C425.881 57.6 425.369 60.672 425.369 64.512C425.369 70.144 426.478 74.24 428.697 76.8C430.915 79.36 433.774 80.64 437.273 80.64ZM493.358 120.192C489.774 120.192 487 119.211 485.038 117.248C483.075 115.285 482.094 112.427 482.094 108.672V43.264C482.094 39.5947 483.032 36.7787 484.91 34.816C486.872 32.8533 489.646 31.872 493.23 31.872C496.899 31.872 499.672 32.8533 501.55 34.816C503.512 36.7787 504.494 39.5947 504.494 43.264V50.688L503.086 44.416C504.28 40.576 506.755 37.504 510.51 35.2C514.35 32.8107 518.702 31.616 523.566 31.616C529.027 31.616 533.806 32.9387 537.902 35.584C542.083 38.2293 545.326 41.984 547.63 46.848C549.934 51.712 551.086 57.6 551.086 64.512C551.086 71.2533 549.934 77.0987 547.63 82.048C545.326 86.9973 542.083 90.7947 537.902 93.44C533.806 96.0853 529.027 97.408 523.566 97.408C518.872 97.408 514.648 96.2987 510.894 94.08C507.139 91.8613 504.622 88.96 503.342 85.376H504.878V108.672C504.878 112.427 503.854 115.285 501.806 117.248C499.843 119.211 497.027 120.192 493.358 120.192ZM516.398 80.64C518.702 80.64 520.707 80.0853 522.414 78.976C524.206 77.7813 525.614 76.032 526.638 73.728C527.662 71.3387 528.174 68.2667 528.174 64.512C528.174 58.7947 527.064 54.6987 524.846 52.224C522.627 49.664 519.811 48.384 516.398 48.384C514.094 48.384 512.046 48.9387 510.254 50.048C508.462 51.1573 507.054 52.9067 506.03 55.296C505.006 57.6 504.494 60.672 504.494 64.512C504.494 70.144 505.603 74.24 507.822 76.8C510.04 79.36 512.899 80.64 516.398 80.64Z" fill="#727171"/>
</svg>
